<?xml version="1.0" encoding="utf-8"?>
<!-- Generator: Adobe Illustrator 21.1.0, SVG Export Plug-In . SVG Version: 6.00 Build 0)  -->
<svg version="1.1" id="Layer_1" xmlns="http://www.w3.org/2000/svg" xmlns:xlink="http://www.w3.org/1999/xlink" x="0px" y="0px"
	 viewBox="0 0 350 92" style="enable-background:new 0 0 350 92;" xml:space="preserve">
<style type="text/css">
	.st0{fill:#00833E;}
	.st1{fill:#FFC627;}
</style>
<g>
	<path class="st0" d="M89.2,71.7c0-3.9,0-4.6-0.1-5.5c-0.1-0.9-0.3-1.3-1.1-1.5c-0.2-0.1-0.6-0.1-1-0.1c-0.3,0-0.4-0.1-0.4-0.2
		c0-0.2,0.2-0.2,0.6-0.2c1.4,0,3,0.1,3.8,0.1c0.6,0,2.2-0.1,3.2-0.1c0.4,0,0.6,0.1,0.6,0.2c0,0.2-0.2,0.2-0.4,0.2
		c-0.3,0-0.4,0-0.7,0.1c-0.7,0.1-0.9,0.6-1,1.5c-0.1,0.8-0.1,1.5-0.1,5.5v3.6c0,3.7,0.7,5.3,2,6.3c1.2,1,2.3,1.1,3.2,1.1
		c1.1,0,2.5-0.4,3.6-1.4c1.4-1.4,1.5-3.7,1.5-6.4v-3.2c0-3.9,0-4.6-0.1-5.5c-0.1-0.9-0.3-1.3-1.1-1.5c-0.2-0.1-0.6-0.1-0.9-0.1
		c-0.3,0-0.4-0.1-0.4-0.2c0-0.2,0.2-0.2,0.5-0.2c1.3,0,2.9,0.1,3,0.1c0.3,0,1.9-0.1,2.9-0.1c0.4,0,0.5,0.1,0.5,0.2
		c0,0.2-0.2,0.2-0.5,0.2c-0.3,0-0.4,0-0.7,0.1c-0.7,0.1-0.9,0.6-1,1.5c-0.1,0.8-0.1,1.5-0.1,5.5v2.8c0,2.9-0.3,5.9-2.4,7.8
		c-1.8,1.6-3.7,1.9-5.4,1.9c-1.4,0-3.8-0.1-5.7-1.8c-1.3-1.2-2.3-3.1-2.3-6.8V71.7z"/>
	<path class="st0" d="M120.2,80.2c0.1,2,0.4,2.7,0.9,2.9c0.4,0.2,0.9,0.2,1.3,0.2c0.3,0,0.4,0.1,0.4,0.2c0,0.2-0.2,0.3-0.6,0.3
		c-1.7,0-2.7-0.1-3.2-0.1c-0.2,0-1.4,0.1-2.8,0.1c-0.3,0-0.6,0-0.6-0.3c0-0.2,0.2-0.2,0.4-0.2c0.3,0,0.8,0,1.2-0.1
		c0.7-0.2,0.8-1,0.8-3.2l0.2-15.3c0-0.5,0.1-0.9,0.3-0.9c0.3,0,0.5,0.3,1,0.8c0.3,0.3,4.2,4.5,8,8.3c1.8,1.8,5.2,5.5,5.7,5.9h0.1
		l-0.3-11.6c0-1.6-0.3-2.1-0.9-2.3c-0.4-0.2-1-0.2-1.4-0.2c-0.3,0-0.4-0.1-0.4-0.2c0-0.2,0.3-0.2,0.7-0.2c1.3,0,2.6,0.1,3.1,0.1
		c0.3,0,1.3-0.1,2.5-0.1c0.3,0,0.6,0,0.6,0.2c0,0.2-0.2,0.2-0.5,0.2c-0.3,0-0.5,0-0.8,0.1c-0.7,0.2-0.9,0.7-1,2.2l-0.3,16.3
		c0,0.6-0.1,0.8-0.3,0.8c-0.3,0-0.6-0.3-0.9-0.6c-1.6-1.5-4.9-4.9-7.6-7.6c-2.8-2.8-5.7-6-6.1-6.5h-0.1L120.2,80.2z"/>
	<path class="st0" d="M149.6,71.7c0-3.9,0-4.6-0.1-5.5c-0.1-0.9-0.3-1.3-0.9-1.4c-0.3-0.1-0.6-0.1-0.9-0.1c-0.3,0-0.4-0.1-0.4-0.3
		c0-0.2,0.2-0.2,0.6-0.2c1,0,2.6,0.1,3.4,0.1c0.6,0,2.2-0.1,3.1-0.1c0.3,0,0.5,0.1,0.5,0.2c0,0.2-0.2,0.3-0.4,0.3
		c-0.3,0-0.5,0-0.8,0.1c-0.7,0.1-0.9,0.6-1,1.5c-0.1,0.8-0.1,1.5-0.1,5.5v4.5c0,2.5,0,4.5,0.1,5.6c0.1,0.7,0.3,1.2,1,1.3
		c0.4,0.1,0.9,0.1,1.3,0.1c0.3,0,0.4,0.1,0.4,0.2c0,0.2-0.2,0.3-0.5,0.3c-1.7,0-3.3-0.1-4-0.1c-0.6,0-2.2,0.1-3.2,0.1
		c-0.3,0-0.5-0.1-0.5-0.3c0-0.1,0.1-0.2,0.4-0.2c0.4,0,0.7-0.1,0.9-0.1c0.5-0.1,0.7-0.5,0.7-1.3c0.1-1.1,0.1-3.1,0.1-5.6V71.7z"/>
	<path class="st0" d="M165.3,66.8c-0.6-1.4-1-1.7-2-2c-0.4-0.1-0.8-0.1-1-0.1c-0.2,0-0.3-0.1-0.3-0.2c0-0.2,0.3-0.2,0.7-0.2
		c1.4,0,2.8,0.1,3.7,0.1c0.6,0,1.9-0.1,3.2-0.1c0.3,0,0.6,0.1,0.6,0.2c0,0.2-0.2,0.2-0.4,0.2c-0.4,0-0.8,0-1,0.2
		c-0.2,0.1-0.3,0.3-0.3,0.5c0,0.3,0.2,1.1,0.6,2l4.4,11.7h0.1c1.1-2.8,4.5-11.1,5.1-12.8c0.1-0.3,0.2-0.7,0.2-1
		c0-0.2-0.1-0.4-0.3-0.5c-0.3-0.1-0.7-0.1-1-0.1c-0.2,0-0.4,0-0.4-0.2c0-0.2,0.2-0.3,0.7-0.3c1.3,0,2.4,0.1,2.7,0.1
		c0.4,0,1.6-0.1,2.4-0.1c0.3,0,0.5,0.1,0.5,0.2c0,0.2-0.2,0.2-0.4,0.2c-0.3,0-0.8,0-1.3,0.3c-0.3,0.2-0.7,0.7-1.4,2.3
		c-1,2.4-1.7,3.8-3.1,7c-1.6,3.8-2.9,6.6-3.4,7.9c-0.7,1.5-0.8,1.9-1.2,1.9c-0.3,0-0.5-0.4-1-1.6L165.3,66.8z"/>
	<path class="st0" d="M192.8,71.7c0-3.9,0-4.6-0.1-5.5c-0.1-0.9-0.3-1.3-1.1-1.5c-0.2-0.1-0.6-0.1-1-0.1c-0.3,0-0.4-0.1-0.4-0.2
		c0-0.2,0.2-0.2,0.6-0.2c1.4,0,3,0.1,3.7,0.1c0.8,0,6,0,6.4,0c0.5-0.1,0.9-0.1,1.1-0.2c0.1,0,0.3-0.1,0.4-0.1c0.1,0,0.2,0.1,0.2,0.2
		c0,0.2-0.1,0.5-0.2,1.7c0,0.3-0.1,1.4-0.1,1.7c0,0.1-0.1,0.3-0.3,0.3c-0.2,0-0.2-0.1-0.2-0.4c0-0.2,0-0.6-0.2-0.9
		c-0.2-0.5-0.4-0.8-1.7-0.9c-0.4-0.1-3.1-0.1-3.7-0.1c-0.1,0-0.2,0.1-0.2,0.3v6.5c0,0.2,0,0.3,0.2,0.3c0.6,0,3.5,0,4.1-0.1
		c0.6-0.1,1-0.1,1.2-0.4c0.2-0.2,0.3-0.3,0.4-0.3c0.1,0,0.2,0.1,0.2,0.2c0,0.2-0.1,0.6-0.2,1.9c-0.1,0.5-0.1,1.5-0.1,1.7
		c0,0.2,0,0.5-0.2,0.5c-0.2,0-0.2-0.1-0.2-0.2c0-0.3,0-0.6-0.1-0.9c-0.1-0.5-0.5-0.9-1.4-1c-0.5-0.1-3-0.1-3.7-0.1
		c-0.1,0-0.2,0.1-0.2,0.3v2c0,0.9,0,3.2,0,4c0.1,1.8,0.5,2.2,3.1,2.2c0.7,0,1.8,0,2.4-0.3c0.7-0.3,1-0.9,1.2-1.9
		c0.1-0.3,0.1-0.4,0.3-0.4c0.2,0,0.2,0.2,0.2,0.5c0,0.6-0.2,2.3-0.3,2.9c-0.2,0.7-0.4,0.7-1.4,0.7c-3.9,0-5.6-0.2-7.1-0.2
		c-0.6,0-2.2,0.1-3.2,0.1c-0.3,0-0.5-0.1-0.5-0.3c0-0.1,0.1-0.2,0.4-0.2c0.4,0,0.7-0.1,0.9-0.1c0.5-0.1,0.6-0.7,0.7-1.4
		c0.1-1.1,0.1-3.1,0.1-5.5V71.7z"/>
	<path class="st0" d="M215.5,71.7c0-3.9,0-4.6-0.1-5.5c-0.1-0.9-0.3-1.3-1.1-1.5c-0.2-0.1-0.6-0.1-1-0.1c-0.3,0-0.4-0.1-0.4-0.2
		c0-0.2,0.2-0.2,0.6-0.2c1.4,0,3,0.1,3.5,0.1c0.9,0,2.8-0.1,3.6-0.1c1.6,0,3.4,0.2,4.7,1.1c0.7,0.5,1.8,1.8,1.8,3.5
		c0,1.9-0.8,3.7-3.4,5.8c2.3,2.9,4.1,5.2,5.6,6.8c1.4,1.5,2.5,1.7,2.9,1.8c0.3,0.1,0.5,0.1,0.7,0.1c0.2,0,0.3,0.1,0.3,0.2
		c0,0.2-0.2,0.3-0.5,0.3h-2.4c-1.4,0-2.1-0.1-2.8-0.5c-1.1-0.6-2.1-1.8-3.5-3.8c-1-1.4-2.2-3.2-2.6-3.6c-0.1-0.2-0.3-0.2-0.5-0.2
		l-2.2-0.1c-0.1,0-0.2,0.1-0.2,0.2v0.4c0,2.4,0,4.4,0.1,5.5c0.1,0.7,0.2,1.3,1,1.4c0.4,0.1,1,0.1,1.3,0.1c0.2,0,0.3,0.1,0.3,0.2
		c0,0.2-0.2,0.3-0.5,0.3c-1.5,0-3.4-0.1-3.8-0.1c-0.5,0-2.1,0.1-3.1,0.1c-0.3,0-0.5-0.1-0.5-0.3c0-0.1,0.1-0.2,0.4-0.2
		c0.4,0,0.7-0.1,0.9-0.1c0.5-0.1,0.6-0.7,0.7-1.4c0.1-1.1,0.1-3.1,0.1-5.5V71.7z M218.5,73.8c0,0.3,0.1,0.4,0.2,0.5
		c0.5,0.2,1.3,0.3,2,0.3c1,0,1.4-0.1,1.8-0.4c0.8-0.6,1.5-1.8,1.5-3.9c0-3.7-2.4-4.7-3.9-4.7c-0.6,0-1.1,0-1.4,0.1
		c-0.2,0.1-0.2,0.2-0.2,0.4V73.8z"/>
	<path class="st0" d="M239.6,83.4c-0.4-0.2-0.5-0.3-0.5-0.9c0-1.4,0.1-3,0.1-3.4c0-0.4,0.1-0.7,0.3-0.7c0.2,0,0.3,0.2,0.3,0.4
		c0,0.3,0.1,0.9,0.2,1.3c0.6,1.9,2.1,2.6,3.7,2.6c2.3,0,3.5-1.6,3.5-2.9c0-1.3-0.4-2.5-2.5-4.1l-1.2-0.9c-2.8-2.2-3.8-4-3.8-6.1
		c0-2.8,2.4-4.9,6-4.9c1.7,0,2.8,0.3,3.4,0.4c0.2,0.1,0.4,0.1,0.4,0.3c0,0.3-0.1,1.1-0.1,3.1c0,0.6-0.1,0.8-0.3,0.8
		c-0.2,0-0.3-0.2-0.3-0.5c0-0.2-0.1-1-0.7-1.7c-0.4-0.5-1.1-1.3-2.8-1.3c-1.9,0-3.1,1.1-3.1,2.7c0,1.2,0.6,2.1,2.7,3.7l0.7,0.5
		c3.1,2.4,4.2,4.1,4.2,6.6c0,1.5-0.6,3.3-2.4,4.5c-1.3,0.8-2.7,1.1-4.1,1.1C241.8,84.1,240.7,83.9,239.6,83.4z"/>
	<path class="st0" d="M262.4,71.7c0-3.9,0-4.6-0.1-5.5c-0.1-0.9-0.3-1.3-0.9-1.4c-0.3-0.1-0.6-0.1-0.9-0.1c-0.3,0-0.4-0.1-0.4-0.3
		c0-0.2,0.2-0.2,0.6-0.2c1,0,2.6,0.1,3.4,0.1c0.6,0,2.2-0.1,3.1-0.1c0.3,0,0.5,0.1,0.5,0.2c0,0.2-0.2,0.3-0.4,0.3
		c-0.3,0-0.5,0-0.8,0.1c-0.7,0.1-0.9,0.6-1,1.5c-0.1,0.8-0.1,1.5-0.1,5.5v4.5c0,2.5,0,4.5,0.1,5.6c0.1,0.7,0.3,1.2,1,1.3
		c0.4,0.1,0.9,0.1,1.3,0.1c0.3,0,0.4,0.1,0.4,0.2c0,0.2-0.2,0.3-0.5,0.3c-1.7,0-3.3-0.1-4-0.1c-0.6,0-2.2,0.1-3.2,0.1
		c-0.3,0-0.5-0.1-0.5-0.3c0-0.1,0.1-0.2,0.4-0.2c0.4,0,0.7-0.1,0.9-0.1c0.5-0.1,0.7-0.5,0.7-1.3c0.1-1.1,0.1-3.1,0.1-5.6V71.7z"/>
	<path class="st0" d="M284,65.7l-3.8,0.1c-1.5,0.1-2.1,0.2-2.5,0.7c-0.3,0.4-0.4,0.7-0.4,0.9c-0.1,0.2-0.1,0.3-0.3,0.3
		c-0.2,0-0.2-0.1-0.2-0.4c0-0.4,0.5-2.8,0.5-3c0.1-0.3,0.2-0.5,0.3-0.5c0.2,0,0.5,0.3,1.1,0.3c0.7,0.1,1.7,0.1,2.6,0.1h10.2
		c1.6,0,2.3-0.3,2.5-0.3c0.2,0,0.2,0.2,0.2,0.5c0,0.5-0.1,2.3-0.1,3c0,0.3-0.1,0.4-0.2,0.4c-0.2,0-0.3-0.1-0.3-0.5l0-0.3
		c-0.1-0.7-0.7-1.4-3-1.4l-3.2-0.1v10.6c0,2.4,0,4.4,0.1,5.5c0.1,0.7,0.2,1.3,1,1.4c0.4,0.1,0.9,0.1,1.3,0.1c0.3,0,0.4,0.1,0.4,0.2
		c0,0.2-0.2,0.3-0.5,0.3c-1.7,0-3.3-0.1-4-0.1c-0.6,0-2.2,0.1-3.2,0.1c-0.3,0-0.5-0.1-0.5-0.3c0-0.1,0.1-0.2,0.4-0.2
		c0.4,0,0.7-0.1,0.9-0.1c0.5-0.1,0.7-0.7,0.7-1.4c0.1-1.1,0.1-3.1,0.1-5.5V65.7z"/>
	<path class="st0" d="M308.3,77c0-1.4-0.3-2-0.6-2.7c-0.2-0.4-3.6-6.1-4.5-7.4c-0.6-1-1.3-1.6-1.8-1.9c-0.3-0.2-0.8-0.3-1.1-0.3
		c-0.2,0-0.4-0.1-0.4-0.2c0-0.2,0.2-0.2,0.5-0.2c0.5,0,2.4,0.1,3.2,0.1c0.5,0,1.6-0.1,2.8-0.1c0.3,0,0.4,0.1,0.4,0.2
		c0,0.2-0.2,0.2-0.6,0.3c-0.2,0.1-0.4,0.3-0.4,0.5c0,0.2,0.1,0.5,0.3,0.9c0.4,0.8,4,7,4.4,7.7c0.3-0.6,3.5-6.3,3.9-7.1
		c0.3-0.6,0.4-1,0.4-1.3c0-0.3-0.1-0.5-0.5-0.6c-0.2-0.1-0.5-0.1-0.5-0.3c0-0.2,0.1-0.2,0.4-0.2c0.9,0,1.7,0.1,2.4,0.1
		c0.6,0,2.3-0.1,2.8-0.1c0.3,0,0.5,0.1,0.5,0.2c0,0.2-0.2,0.3-0.5,0.3c-0.3,0-0.7,0.1-1.1,0.3c-0.5,0.3-0.8,0.6-1.4,1.3
		c-0.9,1-4.5,7.1-4.9,8.2c-0.4,0.9-0.4,1.7-0.4,2.6v2.1c0,0.4,0,1.5,0.1,2.6c0.1,0.7,0.3,1.3,1.1,1.4c0.4,0.1,0.9,0.1,1.3,0.1
		c0.3,0,0.4,0.1,0.4,0.2c0,0.2-0.2,0.3-0.5,0.3c-1.6,0-3.2-0.1-3.9-0.1c-0.6,0-2.3,0.1-3.2,0.1c-0.4,0-0.6-0.1-0.6-0.3
		c0-0.1,0.1-0.2,0.4-0.2c0.4,0,0.7-0.1,0.9-0.1c0.5-0.1,0.7-0.7,0.8-1.4c0.1-1.1,0.1-2.2,0.1-2.6V77z"/>
</g>
<path class="st0" d="M58.1,18.8c-0.4-1.4-0.8-2.2-1.4-2.6c-0.4-0.3-1.1-0.3-1.5-0.3c-0.4,0-0.6,0-0.6-0.3c0-0.3,0.3-0.3,0.8-0.3
	c1.9,0,3.9,0.1,4.3,0.1c0.3,0,2-0.1,4.1-0.1c0.5,0,0.8,0.1,0.8,0.3c0,0.3-0.3,0.3-0.7,0.3c-0.3,0-0.7,0-0.9,0.1
	c-0.3,0.1-0.4,0.4-0.4,0.8c0,0.5,0.4,1.7,0.8,3.4c0.6,2.4,4.1,13.6,4.7,15.7h0.1l7.2-19.2c0.4-1,0.6-1.3,0.9-1.3
	c0.4,0,0.6,0.6,1.1,1.7l7.7,18.6h0.1c0.7-2.5,3.6-12.2,4.9-16.5c0.3-0.8,0.4-1.6,0.4-2.1c0-0.6-0.3-1.1-1.8-1.1
	c-0.4,0-0.6-0.1-0.6-0.3c0-0.3,0.3-0.3,0.8-0.3c2,0,3.5,0.1,3.8,0.1c0.3,0,1.8-0.1,3.1-0.1c0.4,0,0.7,0.1,0.7,0.3
	c0,0.3-0.2,0.4-0.5,0.4c-0.4,0-0.9,0-1.3,0.2c-0.9,0.3-1.3,1.8-2.1,3.9c-1.7,4.6-5.6,16.4-7.4,21.9c-0.4,1.3-0.6,1.7-1.1,1.7
	c-0.4,0-0.6-0.4-1.1-1.8l-7.7-18.5h-0.1c-0.7,1.9-5.6,14.9-7.2,18.3c-0.7,1.5-0.9,2-1.3,2c-0.4,0-0.6-0.4-0.8-1.4L58.1,18.8z"/>
<path class="st0" d="M101.4,25.9c0-5.6,0-6.6-0.1-7.8c-0.1-1.3-0.4-1.9-1.3-2.1c-0.4-0.1-0.9-0.1-1.3-0.1c-0.4,0-0.6-0.1-0.6-0.4
	c0-0.2,0.3-0.3,0.9-0.3c1.4,0,3.7,0.1,4.8,0.1c0.9,0,3.1-0.1,4.5-0.1c0.5,0,0.8,0.1,0.8,0.3c0,0.3-0.2,0.4-0.6,0.4
	c-0.4,0-0.7,0-1.1,0.1c-1,0.2-1.3,0.8-1.4,2.1c-0.1,1.2-0.1,2.2-0.1,7.8v6.5c0,3.6,0,6.5,0.2,8.1c0.1,1,0.4,1.7,1.5,1.8
	c0.5,0.1,1.3,0.1,1.9,0.1c0.4,0,0.6,0.1,0.6,0.3c0,0.3-0.3,0.4-0.7,0.4c-2.4,0-4.8-0.1-5.8-0.1c-0.8,0-3.2,0.1-4.6,0.1
	c-0.5,0-0.7-0.1-0.7-0.4c0-0.2,0.1-0.3,0.6-0.3c0.6,0,1-0.1,1.3-0.1c0.7-0.1,1-0.8,1.1-1.8c0.2-1.5,0.2-4.5,0.2-8V25.9z"/>
<path class="st0" d="M122.6,32.4c0,4.7,0,7.3,0.8,7.9c0.6,0.6,1.6,0.8,4.5,0.8c2,0,3.4,0,4.3-1c0.4-0.5,0.9-1.5,1-2.2
	c0-0.3,0.1-0.6,0.4-0.6c0.3,0,0.3,0.2,0.3,0.6c0,0.4-0.3,3.2-0.6,4.2c-0.2,0.8-0.4,1-2.3,1c-5.3,0-7.7-0.2-10.7-0.2
	c-0.8,0-3.2,0.1-4.6,0.1c-0.5,0-0.7-0.1-0.7-0.4c0-0.2,0.1-0.3,0.6-0.3c0.6,0,1-0.1,1.3-0.1c0.7-0.1,0.9-1,1.1-2
	c0.2-1.5,0.2-4.5,0.2-7.9v-6.5c0-5.6,0-6.6-0.1-7.8c-0.1-1.3-0.4-1.8-1.6-2.1c-0.3-0.1-0.7-0.1-1.2-0.1c-0.4,0-0.6-0.1-0.6-0.3
	c0-0.3,0.3-0.3,0.8-0.3c1.7,0,4.1,0.1,5.1,0.1c0.9,0,3.6-0.1,5-0.1c0.5,0,0.8,0.1,0.8,0.3c0,0.3-0.2,0.3-0.7,0.3c-0.4,0-1,0-1.4,0.1
	c-1,0.2-1.3,0.8-1.4,2.1c-0.1,1.2-0.1,2.2-0.1,7.8V32.4z"/>
<path class="st0" d="M141.7,15.3c0.1-0.6,0.3-1,0.6-1c0.3,0,0.5,0.2,1,1.1l10.1,20.8l10-21.1c0.3-0.6,0.5-0.9,0.8-0.9
	c0.3,0,0.6,0.4,0.7,1.1l3.4,22.8c0.3,2.3,0.7,3.4,1.8,3.7c1.1,0.3,1.8,0.4,2.3,0.4c0.3,0,0.6,0,0.6,0.3c0,0.3-0.4,0.4-1,0.4
	c-0.9,0-6-0.1-7.5-0.2c-0.8-0.1-1.1-0.2-1.1-0.4c0-0.2,0.1-0.3,0.4-0.4c0.2-0.1,0.3-0.6,0.2-1.6l-2.2-16.2h-0.1l-8,16.7
	c-0.8,1.7-1,2.1-1.4,2.1c-0.3,0-0.7-0.7-1.3-1.8c-0.9-1.7-3.8-7.3-4.2-8.4c-0.3-0.8-2.5-5.4-3.8-8.2h-0.1l-1.9,14.7
	c-0.1,0.7-0.1,1.1-0.1,1.7c0,0.7,0.5,1,1.1,1.2c0.7,0.1,1.2,0.2,1.5,0.2c0.3,0,0.6,0.1,0.6,0.3c0,0.3-0.3,0.4-0.9,0.4
	c-1.6,0-3.2-0.1-3.9-0.1c-0.7,0-2.5,0.1-3.7,0.1c-0.4,0-0.7-0.1-0.7-0.4c0-0.2,0.2-0.3,0.6-0.3c0.3,0,0.6,0,1.1-0.1
	c1-0.2,1.3-1.7,1.5-2.9L141.7,15.3z"/>
<path class="st0" d="M178.8,25.9c0-5.6,0-6.6-0.1-7.8c-0.1-1.3-0.4-1.9-1.3-2.1c-0.4-0.1-0.9-0.1-1.3-0.1c-0.4,0-0.6-0.1-0.6-0.4
	c0-0.2,0.3-0.3,0.9-0.3c1.4,0,3.7,0.1,4.8,0.1c0.9,0,3.1-0.1,4.5-0.1c0.5,0,0.8,0.1,0.8,0.3c0,0.3-0.2,0.4-0.6,0.4
	c-0.4,0-0.7,0-1.1,0.1c-1,0.2-1.3,0.8-1.4,2.1c-0.1,1.2-0.1,2.2-0.1,7.8v6.5c0,3.6,0,6.5,0.1,8.1c0.1,1,0.4,1.7,1.5,1.8
	c0.5,0.1,1.3,0.1,1.9,0.1c0.4,0,0.6,0.1,0.6,0.3c0,0.3-0.3,0.4-0.7,0.4c-2.4,0-4.8-0.1-5.8-0.1c-0.8,0-3.2,0.1-4.6,0.1
	c-0.5,0-0.7-0.1-0.7-0.4c0-0.2,0.1-0.3,0.6-0.3c0.6,0,1-0.1,1.3-0.1c0.7-0.1,1-0.8,1.1-1.8c0.2-1.5,0.2-4.5,0.2-8V25.9z"/>
<path class="st0" d="M197.5,38.1c0.1,2.9,0.6,3.8,1.3,4.1c0.6,0.2,1.3,0.3,1.9,0.3c0.4,0,0.6,0.1,0.6,0.3c0,0.3-0.3,0.4-0.8,0.4
	c-2.4,0-3.9-0.1-4.6-0.1c-0.3,0-2.1,0.1-4,0.1c-0.5,0-0.8,0-0.8-0.4c0-0.2,0.2-0.3,0.6-0.3c0.5,0,1.1,0,1.7-0.2
	c1-0.3,1.1-1.4,1.1-4.6l0.3-21.8c0-0.7,0.1-1.3,0.5-1.3c0.4,0,0.7,0.5,1.4,1.1c0.4,0.5,6,6.5,11.4,11.8c2.5,2.5,7.5,7.8,8.1,8.4h0.2
	l-0.4-16.6c0-2.3-0.4-3-1.3-3.3c-0.6-0.2-1.4-0.2-2-0.2c-0.4,0-0.6-0.1-0.6-0.3c0-0.3,0.4-0.3,1-0.3c1.9,0,3.7,0.1,4.5,0.1
	c0.4,0,1.8-0.1,3.6-0.1c0.5,0,0.8,0,0.8,0.3c0,0.2-0.2,0.3-0.7,0.3c-0.4,0-0.7,0-1.1,0.1c-1,0.3-1.3,1.1-1.4,3.1l-0.4,23.3
	c0,0.8-0.1,1.1-0.5,1.1c-0.4,0-0.8-0.4-1.3-0.8c-2.3-2.2-7-7-10.9-10.8c-4-4-8.1-8.6-8.8-9.3h-0.1L197.5,38.1z"/>
<path class="st0" d="M252.6,40.6c0,1,0,1.1-0.5,1.3c-2.4,1.3-6,1.7-8.9,1.7c-9,0-17-4.3-17-14.5c0-5.9,3.1-10,6.4-12.1
	c3.5-2.1,6.8-2.4,9.9-2.4c2.5,0,5.8,0.4,6.5,0.6c0.8,0.1,2.1,0.4,2.9,0.4c0.4,0,0.5,0.2,0.5,0.4c0,0.4-0.3,1.4-0.3,6
	c0,0.6-0.1,0.8-0.4,0.8c-0.3,0-0.3-0.2-0.4-0.5c-0.1-0.8-0.3-2-1.3-3.1c-1.1-1.2-4.1-2.9-8.2-2.9c-2,0-4.7,0.1-7.3,2.3
	c-2.1,1.7-3.4,4.5-3.4,9c0,7.9,5.1,13.9,12.8,13.9c1,0,2.2,0,3.1-0.4c0.6-0.3,0.7-0.7,0.7-1.4v-3.5c0-1.8,0-3.2,0-4.4
	c0-1.3-0.4-1.8-1.6-2.1c-0.3-0.1-0.9-0.1-1.4-0.1c-0.3,0-0.6-0.1-0.6-0.3c0-0.3,0.3-0.4,0.8-0.4c1.9,0,4.2,0.1,5.3,0.1
	c1.1,0,3.1-0.1,4.3-0.1c0.5,0,0.7,0.1,0.7,0.4c0,0.2-0.2,0.3-0.5,0.3c-0.3,0-0.6,0-1,0.1c-1,0.2-1.4,0.8-1.4,2.1c0,1.1,0,2.6,0,4.4
	V40.6z"/>
<path class="st0" d="M267.8,17.3l-5.5,0.1c-2.1,0.1-3,0.3-3.6,1.1c-0.4,0.6-0.6,1-0.6,1.3c-0.1,0.3-0.2,0.4-0.4,0.4
	c-0.3,0-0.3-0.2-0.3-0.6c0-0.6,0.7-3.9,0.8-4.2c0.1-0.5,0.2-0.7,0.4-0.7c0.3,0,0.7,0.4,1.6,0.4c1.1,0.1,2.5,0.2,3.7,0.2h14.6
	c2.4,0,3.2-0.4,3.5-0.4c0.3,0,0.3,0.2,0.3,0.8c0,0.8-0.1,3.3-0.1,4.3c0,0.4-0.1,0.6-0.3,0.6c-0.3,0-0.4-0.2-0.4-0.7l0-0.4
	c-0.1-1-1.1-2-4.4-2.1l-4.6-0.1v15.1c0,3.4,0,6.3,0.2,7.9c0.1,1,0.3,1.8,1.4,2c0.5,0.1,1.3,0.1,1.9,0.1c0.4,0,0.6,0.1,0.6,0.3
	c0,0.3-0.3,0.4-0.7,0.4c-2.4,0-4.8-0.1-5.8-0.1c-0.8,0-3.2,0.1-4.6,0.1c-0.5,0-0.7-0.1-0.7-0.4c0-0.2,0.1-0.3,0.6-0.3
	c0.6,0,1-0.1,1.3-0.1c0.7-0.1,1-1,1.1-2c0.2-1.5,0.2-4.5,0.2-7.9V17.3z"/>
<path class="st0" d="M284.6,29.1c0-6.3,4.2-14.5,15.2-14.5c9.2,0,14.9,5.3,14.9,13.8c0,8.4-5.9,15.1-15.3,15.1
	C288.9,43.6,284.6,35.7,284.6,29.1z M309.6,29.8c0-8.3-4.8-13.4-10.8-13.4c-4.2,0-9.1,2.4-9.1,11.5c0,7.7,4.2,13.8,11.3,13.8
	C303.6,41.7,309.6,40.5,309.6,29.8z"/>
<path class="st0" d="M324.7,38.1c0.1,2.9,0.6,3.8,1.3,4.1c0.6,0.2,1.3,0.3,1.9,0.3c0.4,0,0.6,0.1,0.6,0.3c0,0.3-0.3,0.4-0.8,0.4
	c-2.4,0-3.9-0.1-4.6-0.1c-0.3,0-2.1,0.1-4,0.1c-0.5,0-0.8,0-0.8-0.4c0-0.2,0.2-0.3,0.6-0.3c0.5,0,1.1,0,1.7-0.2
	c1-0.3,1.1-1.4,1.1-4.6l0.3-21.8c0-0.7,0.1-1.3,0.5-1.3c0.4,0,0.7,0.5,1.4,1.1c0.4,0.5,6,6.5,11.4,11.8c2.5,2.5,7.5,7.8,8.1,8.4h0.2
	l-0.4-16.6c0-2.3-0.4-3-1.3-3.3c-0.6-0.2-1.4-0.2-2-0.2c-0.4,0-0.6-0.1-0.6-0.3c0-0.3,0.4-0.3,1-0.3c1.9,0,3.7,0.1,4.5,0.1
	c0.4,0,1.8-0.1,3.6-0.1c0.5,0,0.8,0,0.8,0.3c0,0.2-0.2,0.3-0.7,0.3c-0.4,0-0.7,0-1.1,0.1c-1,0.3-1.3,1.1-1.4,3.1l-0.4,23.3
	c0,0.8-0.1,1.1-0.5,1.1c-0.4,0-0.8-0.4-1.3-0.8c-2.3-2.2-7-7-10.9-10.8c-4-4-8.1-8.6-8.8-9.3h-0.1L324.7,38.1z"/>
<rect x="74.9" y="54.5" class="st1" width="256.9" height="1.6"/>
<polygon class="st0" points="0.9,86.8 0.9,91.6 28.3,91.6 28.3,81.9 "/>
<polygon class="st0" points="48.5,86.7 48.5,91.6 30.4,91.6 30.4,82.2 "/>
<polygon class="st0" points="2.8,72.7 2.8,84.5 25.7,80.4 25.7,67.1 "/>
<path class="st0" d="M23.2,13.6c0,0-4.1,17.5-6.2,22.2C14.1,42.4,6.3,51.2,5.7,51.8c0,0,1,0.5,1,0.5l11.5-5.8h13.9l11.7,5.8
	c0,0,0.9-0.5,0.9-0.5C43,50.6,37.5,44,33.3,35.8c-2.6-5.1-6.4-22.1-7-22.3C25.8,13.3,23.9,13.2,23.2,13.6z"/>
<g>
	<path class="st0" d="M23.7,4.9V4.1c0,0-1.5-0.6-1.9-1.2c-0.4-0.6-2.5-1.8-3-1.9c-0.5-0.1-0.8-0.3,0-0.4c0.8-0.2,2.5-0.1,3.3,0.7
		C23,2,24.1,3.2,24.5,3.2c0.4,0,0.6-1,1-0.8c0.4,0.2,0.4,0.7,0.7,0.2c0.4-0.5,2.5-2.1,3.3-2.3c0.9-0.2,1.4,0.3,1,0.4
		c-0.4,0.1-1.8,0.7-2.1,1.2c-0.3,0.4-1.1,1.6-1.6,1.7c-0.5,0.1-1.2,0.9-1.2,1.1c0,0.2,0.2,1.2,0.2,1.5c0,0.3,0.2,1.3-0.2,1.6
		c-0.4,0.3-1,0.4-1.4,0c-0.4-0.3-0.4-0.5-0.7-0.5c-0.3,0-0.5-0.1-0.3-0.4C23.4,6.5,23.7,5.4,23.7,4.9z"/>
	<g>
		<rect x="24.6" y="7.2" class="st0" width="0.5" height="6.6"/>
	</g>
	<circle class="st0" cx="24.9" cy="10.6" r="1.1"/>
</g>
<g>
	<g>
		<path class="st0" d="M46.4,71.8l-18.3-5l-0.1,13l18.4,4.6L46.4,71.8z M37.7,81.3c-2.1-0.7-3.8-3.4-3.8-6.1c0-2.7,1.8-4.4,3.9-3.7
			c2.1,0.7,3.8,3.4,3.8,6.1C41.6,80.4,39.8,82,37.7,81.3z"/>
	</g>
</g>
<g>
	<g>
		<path class="st0" d="M31.8,48.4l-13.2,0l-9.8,4.9l1.3,0.6V69l2.9-0.7v-9c0-2.2,1.2-4.3,2.6-4.8c1.4-0.5,2.6,0.9,2.6,3.1v9.5
			l2.8-0.7V55.8c0-2.2,1.8-3.9,4.1-3.9s4.1,1.8,4.1,3.9v9.7l2.8,0.8v-8.7c0-2.2,1.2-3.6,2.6-3.1c1.4,0.5,2.6,2.6,2.6,4.8v8.4
			l2.8,0.8V54.1l1.5-0.8L31.8,48.4z M18.2,69.5h2.8v-1l-2.8,0.7V69.5z M29.2,69.5H32v-1.3l-2.8-0.8V69.5z"/>
	</g>
</g>
<polygon class="st0" points="35.4,74.4 37.6,75.8 40.5,75.6 37.6,76.8 "/>
<g>
	<path class="st0" d="M325.4,64.2H324v-0.5h3.5v0.5h-1.5v4.2h-0.6V64.2z"/>
	<path class="st0" d="M332.1,66.4c0-0.7-0.1-1.5-0.1-2.1h0c-0.2,0.6-0.4,1.2-0.6,1.8l-0.8,2.3h-0.5l-0.8-2.3
		c-0.2-0.7-0.4-1.3-0.6-1.9h0c0,0.6,0,1.4-0.1,2.1l-0.1,2h-0.6l0.3-4.8h0.8l0.8,2.3c0.2,0.6,0.4,1.1,0.5,1.6h0
		c0.1-0.5,0.3-1,0.5-1.6l0.8-2.3h0.8l0.3,4.8h-0.6L332.1,66.4z"/>
</g>
</svg>
